<svg id="レイヤー_1" data-name="レイヤー 1" xmlns="http://www.w3.org/2000/svg" viewBox="0 0 30 30"><defs><style>.cls-1{fill:#f2001f;}</style></defs><g id="パス_11858" data-name="パス 11858"><path class="cls-1" d="M30,23.69a1,1,0,0,0-.07-.45c-.15-.44-1.19-.91-1.62-1.13-1.21-.68-2.45-1.34-3.64-2-.55-.35-1.24-1-1.9-1-1.3,0-3.19,3.85-4.34,3.85a4.48,4.48,0,0,1-1.83-.83A21.21,21.21,0,0,1,7.88,13.4a4.61,4.61,0,0,1-.83-1.83c0-1.15,3.86-3.05,3.86-4.34,0-.66-.64-1.34-1-1.9-.71-1.19-1.37-2.43-2-3.64C7.67,1.26,7.2.22,6.75.07A1,1,0,0,0,6.3,0a9.77,9.77,0,0,0-3,.66A5.61,5.61,0,0,0,1.09,3.27,8.06,8.06,0,0,0,0,7.22,16.35,16.35,0,0,0,1.47,12.8a19.61,19.61,0,0,0,1.77,3.73A36,36,0,0,0,13.46,26.76a19.9,19.9,0,0,0,3.73,1.77A16.41,16.41,0,0,0,22.77,30a8.13,8.13,0,0,0,4-1.09,5.64,5.64,0,0,0,2.6-2.25A9.48,9.48,0,0,0,30,23.69Z"/></g></svg>